<svg width="84" height="24" viewBox="0 0 84 24" fill="none" xmlns="http://www.w3.org/2000/svg">
<path d="M1.97534 5.19067H7.05308V21.5523H1.97534V5.19067Z" fill="#FFC931"/>
<path d="M24.9944 0.112915H30.0721L30.0439 16.3899L24.9944 16.4745V0.112915Z" fill="#FFC931"/>
<path d="M1.97534 21.5523V16.4745H12.1308V21.5523H1.97534Z" fill="#FFC931"/>
<path d="M19.9166 21.5523V16.4745H24.9944V21.5523H19.9166Z" fill="#FFC931"/>
<path d="M7.0531 5.19065V0.112915H30.0722V5.19065H7.0531Z" fill="#FFC931"/>
<path d="M18.3087 18.0261L19.8602 16.4745H23.2172V18.1107L18.3087 18.0261Z" fill="#FB72FF"/>
<path d="M5.47339 18.0543L7.05313 16.4745L11.9898 16.531L10.5511 18.0543H5.47339Z" fill="#FB72FF"/>
<path d="M5.47339 7.05249H6.99671V16.4745L5.47339 17.9978V7.05249Z" fill="#00CFF2"/>
<path d="M30.1286 5.24709H30.1196L30.1004 16.39V16.4454L30.0451 16.4463L25.0508 16.53V21.6087H19.8603V18.109L18.3076 18.0825L18.1749 18.0802L19.8371 16.4181H24.938V5.24709H7.10952V16.4181H12.1873V21.6087H1.91895V5.13425H6.99668V0.0565186H30.1286V5.24709Z" stroke="#1E1E1E" stroke-width="0.112839"/>
<path d="M0.282715 6.88324H5.36045V23.2448H0.282715V6.88324Z" fill="#FFC931"/>
<path d="M23.3019 1.80548H28.3796V18.1671H23.3019V1.80548Z" fill="#FFC931"/>
<path d="M0.282715 23.2448V18.1671H10.4382V23.2448H0.282715Z" fill="#FFC931"/>
<path d="M18.2241 23.2448V18.1671H23.3019V23.2448H18.2241Z" fill="#FFC931"/>
<path d="M5.36047 6.88322V6.79859V5.19064V1.80548H28.3795V6.88322H5.36047Z" fill="#FFC931"/>
<path d="M10.5696 15.1147V13.4418H8.74084V12.0286H10.5696V10.1479H11.8996V12.0286H13.7388V13.4418H11.8996V15.1147H10.5696Z" fill="#FB72FF"/>
<path d="M21.2707 12.638C21.2707 14.0402 20.1339 15.1769 18.7319 15.1769C17.3297 15.1769 16.193 14.0402 16.193 12.638C16.193 11.2358 17.3297 10.0991 18.7319 10.0991C20.1339 10.0991 21.2707 11.2358 21.2707 12.638Z" fill="#00CFF2"/>
<path d="M28.3795 1.80548V6.88322V18.1671L30.0439 16.4463V0.141113L28.3795 1.80548Z" fill="#00CFF2"/>
<path d="M23.3018 1.80549H28.3795L30.0439 0.141125L6.96842 0.112915L5.36047 1.80549H23.3018Z" fill="#FB72FF"/>
<path d="M5.36045 5.19067H1.97529L0.282715 6.79862H5.36045V5.19067Z" fill="#FB72FF"/>
<path d="M24.9944 21.5241L23.5134 23.2167C23.479 23.2556 23.4147 23.2313 23.4147 23.1794V18.28H24.9944V21.5241Z" fill="#00CFF2"/>
<path d="M18.7318 10.0427C20.1654 10.0427 21.3271 11.2047 21.3271 12.638C21.3271 14.0713 20.1654 15.2333 18.7318 15.2333C17.2985 15.2333 16.1365 14.0713 16.1365 12.638C16.1365 11.2047 17.2985 10.0427 18.7318 10.0427ZM11.9559 10.0915V11.9722H13.7951V13.4982H11.9559V15.1711H10.5131V13.4982H8.68431V11.9722H10.5131V10.0915H11.9559ZM30.1003 16.4691L30.0845 16.4855L28.4201 18.2066L28.4032 18.2235H25.0507V21.5455L25.0366 21.5613L23.5556 23.2539C23.4874 23.3323 23.3582 23.2838 23.3582 23.1794V23.3013H18.1676V18.1107H23.2453V6.93966H5.41684V18.1107H10.4946V23.3013H0.226269V6.85503H0.141357L0.243872 6.75771L1.93645 5.14976L1.95276 5.13425H5.304V1.783L5.31952 1.76669L6.92747 0.0741161L6.94417 0.0564575L6.96843 0.0565126L30.0439 0.0847223L30.1003 0.0847773V16.4691Z" stroke="#1E1E1E" stroke-width="0.112839"/>
<path d="M12.0591 16.496C12.0983 16.4652 12.159 16.4925 12.159 16.5453V21.5449L12.1453 21.5607L10.6381 23.3058C10.5694 23.3859 10.4387 23.3363 10.4398 23.2313L10.4946 18.1948L10.4948 18.1728L10.5098 18.157L12.0516 16.503L12.0591 16.496Z" fill="#00CFF2" stroke="#1E1E1E" stroke-width="0.112839"/>
<circle cx="40.2859" cy="11.701" r="3.5" fill="#FC1919"/>
<path d="M50.2513 17.201V15.905H48.9553V6.83299H51.5473V14.609H56.7313V17.201H50.2513ZM57.4856 9.42499V6.83299H65.2616V9.42499H62.6696V14.609H65.2616V17.201H57.4856V14.609H60.0776V9.42499H57.4856ZM66.0159 14.609V6.83299H68.6079V13.313H71.1999V6.83299H73.7919V14.609H72.4959V15.905H71.1999V17.201H68.6079V15.905H67.3119V14.609H66.0159ZM75.8422 17.201V15.905H74.5462V8.12899H75.8422V6.83299H82.3222V9.42499H77.1382V10.721H79.7302V13.313H77.1382V14.609H82.3222V17.201H75.8422Z" fill="#FC1919"/>
</svg>
