<?xml version="1.0" encoding="UTF-8"?>
<svg version="1.1" xmlns="http://www.w3.org/2000/svg" width="512" height="512">
<path d="M0 0 C9.61701008 9.12959826 12.33094005 18.96612891 14.5625 31.75 C14.79954183 33.06865738 15.03737222 34.38717319 15.27587891 35.70556641 C15.84160154 38.84528704 16.39957868 41.98629885 16.95458984 45.12792969 C17.85631038 50.21578777 18.78074462 55.29935693 19.70905972 60.3824234 C20.72209181 65.93067803 21.7278683 71.48021876 22.72900486 77.03063202 C23.36285917 80.54447157 23.9990317 84.05784963 24.6411438 87.57019043 C25.37250179 91.57365026 26.0890981 95.57962905 26.8046875 99.5859375 C27.02627029 100.789086 27.24785309 101.9922345 27.47615051 103.23184204 C30.55814887 120.67939047 30.55814887 120.67939047 27.3125 126.875 C22.37327734 133.54962522 17.76681219 134.86033963 9.91577148 136.25366211 C8.83797896 136.4569686 7.76018644 136.6602751 6.64973354 136.86974239 C3.48446487 137.46211043 0.31685345 138.03963558 -2.8522439 138.6111083 C-5.90313471 139.16352955 -8.952068 139.72644324 -12.00119954 140.28848046 C-23.17751321 142.34735053 -34.36100122 144.36602956 -45.54525447 146.38123822 C-50.84905401 147.33744471 -56.15234998 148.29643643 -61.45570374 149.25511169 C-71.53675467 151.07703313 -81.61821875 152.89665724 -91.69984967 154.7153663 C-106.25200597 157.34065201 -120.80353687 159.9693999 -135.35507298 162.59812069 C-137.56342098 162.99705084 -139.77176925 163.39597949 -141.9801178 163.79490662 C-143.06556761 163.99099154 -144.15101742 164.18707646 -145.26935965 164.38910335 C-151.47449742 165.50997564 -157.67974671 166.63022759 -163.88511211 167.74983901 C-199.26283429 174.13308321 -234.63196363 180.56334791 -270 187 C-269.06392695 187.00146521 -269.06392695 187.00146521 -268.10894334 187.00296003 C-231.1327308 187.06121664 -194.15657959 187.13500172 -157.18043997 187.22898628 C-152.74187563 187.24025461 -148.30331097 187.25139304 -143.86474609 187.26245117 C-142.98109798 187.26465486 -142.09744987 187.26685854 -141.18702455 187.269129 C-126.87419753 187.30451313 -112.56137057 187.32937097 -98.24851601 187.35034702 C-83.56507086 187.37210018 -68.88168253 187.40514599 -54.1982857 187.44870156 C-45.1359286 187.47522663 -36.07364231 187.4929157 -27.01124831 187.49934604 C-20.79903659 187.50459731 -14.58691402 187.52080548 -8.37475006 187.54566566 C-4.78924148 187.55968966 -1.20389252 187.56884814 2.3816452 187.56500816 C6.26827275 187.56097191 10.15459238 187.57999053 14.04116821 187.60127258 C15.17541186 187.59642501 16.30965551 187.59157743 17.47827017 187.58658296 C27.50570151 187.67749567 27.50570151 187.67749567 32 191 C36.85875988 196.18718514 36.56599073 201.25020709 36.50793457 207.97367859 C36.51417453 209.08177016 36.5204145 210.18986172 36.52684355 211.33153182 C36.54280404 215.04635129 36.53015645 218.7605174 36.51757812 222.4753418 C36.52299803 225.13816748 36.52997529 227.8009481 36.53881836 230.46376038 C36.55660153 236.94778261 36.55276372 243.43161959 36.5411678 249.91564908 C36.53212903 255.18859669 36.5309114 260.46149243 36.53526306 265.73444557 C36.53587599 266.48535494 36.53648893 267.2362643 36.53712043 268.0099285 C36.53839937 269.53552027 36.53969622 271.06111202 36.5410108 272.58670375 C36.55241701 286.89293968 36.53930431 301.1990731 36.51780933 315.50529221 C36.49995653 327.76651905 36.50302732 340.0275943 36.52148438 352.28881836 C36.54292188 366.5365992 36.55129918 380.78429004 36.53903532 395.03208476 C36.53776118 396.55354836 36.5365037 398.07501197 36.53526306 399.5964756 C36.53464596 400.34499583 36.53402886 401.09351607 36.53339306 401.86471873 C36.52994742 407.12552453 36.53575188 412.38627301 36.54518127 417.64706993 C36.55643551 424.06703492 36.55329047 430.48680446 36.5320583 436.90674724 C36.52159069 440.1790847 36.51952772 443.45103214 36.53065491 446.72337723 C36.54163021 450.27970727 36.52782092 453.83513049 36.50793457 457.3914032 C36.51685746 458.41360716 36.52578034 459.43581112 36.53497362 460.48899096 C36.41529102 471.56902159 32.8549552 481.06773225 25 489 C15.47303129 496.83061996 5.73270173 499.12193403 -6.47078419 499.12863445 C-7.19342395 499.13038749 -7.91606371 499.13214053 -8.66060165 499.13394669 C-11.07679845 499.13859054 -13.49293465 499.13614536 -15.90913391 499.13371277 C-17.66108902 499.13558155 -19.41304372 499.13788252 -21.16499776 499.14057809 C-25.9755498 499.14669413 -30.78608447 499.14656273 -35.59663951 499.14538372 C-40.78626134 499.14517966 -45.9758776 499.15069891 -51.16549683 499.15544128 C-61.33136701 499.16374722 -71.4972314 499.1664961 -81.66310469 499.16705366 C-89.92610676 499.16752883 -98.18910692 499.16958361 -106.45210838 499.17275429 C-129.87854525 499.18156054 -153.30497755 499.18617368 -176.73141608 499.18542381 C-177.99430415 499.18538386 -179.25719221 499.1853439 -180.55834961 499.18530273 C-181.82277927 499.18526185 -183.08720894 499.18522097 -184.38995465 499.18517885 C-204.88488399 499.18477234 -225.37979497 499.19434318 -245.874719 499.2084411 C-266.91808113 499.22280209 -287.9614343 499.22971144 -309.00480145 499.22884732 C-320.81933854 499.22851527 -332.63385638 499.23126614 -344.44838905 499.24202538 C-354.50684788 499.25112669 -364.56527872 499.25330863 -374.62373988 499.24651595 C-379.75504716 499.24324896 -384.88630073 499.2432006 -390.01760292 499.2518692 C-394.71733719 499.25972705 -399.41697509 499.25831004 -404.11670699 499.24958507 C-405.81451144 499.24804852 -407.51232305 499.24987208 -409.21011905 499.25544515 C-423.61653842 499.29959277 -435.12155771 498.14661389 -447.25 489.75 C-456.68154019 480.31845981 -460.04738011 469.26608595 -460.07835484 456.13730049 C-460.06187805 454.29322868 -460.03959441 452.4492028 -460.0125885 450.60525513 C-460.00215387 449.58230185 -459.99171924 448.55934858 -459.98096842 447.50539672 C-459.95760857 445.27030532 -459.93181129 443.03523838 -459.90387344 440.80019951 C-459.84250894 435.87805031 -459.79320877 430.95579883 -459.7430867 426.03352427 C-459.71595575 423.37710236 -459.68832022 420.72069089 -459.6599313 418.06428266 C-459.55559576 408.21109569 -459.47816647 398.35790182 -459.4158783 388.50436401 C-459.41130478 387.78578315 -459.40673126 387.06720229 -459.40201915 386.32684626 C-459.35969754 379.64523435 -459.31917693 372.96361209 -459.28004849 366.28198075 C-459.25314501 361.69969996 -459.22530524 357.11742569 -459.1965332 352.53515625 C-459.1893895 351.39440892 -459.1893895 351.39440892 -459.18210148 350.2306162 C-459.11411235 339.6030428 -459.0094769 328.97637582 -458.8759772 318.34943244 C-458.64550576 299.98573583 -458.49257612 281.62302422 -458.47265625 263.2578125 C-458.47168444 262.54164092 -458.47071262 261.82546933 -458.46971136 261.08759558 C-458.41971223 215.3734817 -461.49925545 171.28528543 -473.58473778 126.9539299 C-476.9365406 114.204664 -478.42522262 100.03232684 -472 88 C-465.77699139 77.63445607 -457.21544759 71.44966883 -445.59860575 68.36165655 C-443.1659843 67.83177239 -440.73031312 67.36665126 -438.27986145 66.92668152 C-437.3705943 66.75484946 -436.46132715 66.58301741 -435.52450645 66.40597832 C-432.55427515 65.84711952 -429.58159053 65.30274933 -426.60864258 64.75854492 C-424.50027605 64.36486521 -422.39208012 63.97027088 -420.28404713 63.57480907 C-414.88881749 62.56501115 -409.49149135 61.56692959 -404.09355593 60.57171202 C-399.39178051 59.70278914 -394.69214875 58.82250991 -389.99252319 57.94204712 C-380.05073395 56.08169721 -370.10571843 54.2389996 -360.16004753 52.39953089 C-355.10316381 51.46390478 -350.04659911 50.5265572 -344.98999023 49.58944702 C-335.24246819 47.78326039 -325.49467732 45.9785291 -315.74677408 44.17440104 C-304.44443385 42.08254508 -293.14232546 39.98943786 -281.84023345 37.89624131 C-276.08887394 36.83106684 -270.33750672 35.76593405 -264.58613586 34.70082092 C-263.44346565 34.48920623 -262.30079544 34.27759155 -261.12349886 34.05956429 C-253.02132107 32.55913326 -244.91908034 31.05904243 -236.81681824 29.55906677 C-209.74557181 24.54720808 -182.67540257 19.52958742 -155.60648745 14.50515276 C-148.83895235 13.24901173 -142.07133923 11.99329189 -135.30366516 10.73789978 C-133.9072581 10.47886817 -133.9072581 10.47886817 -132.4826408 10.2146036 C-127.88253988 9.36130907 -123.28242828 8.50807215 -118.68230915 7.65487576 C-108.96863258 5.8531762 -99.25520652 4.05013686 -89.54208243 2.24546123 C-82.97689666 1.02580109 -76.41139885 -0.19216926 -69.84564817 -1.40878463 C-66.09950053 -2.1029913 -62.35349777 -2.79795568 -58.60787964 -3.49501419 C-54.58109093 -4.24438968 -50.55364463 -4.99016912 -46.52612305 -5.7355957 C-44.7794133 -6.06157006 -44.7794133 -6.06157006 -42.9974165 -6.39412975 C-27.06245458 -9.3344645 -13.46783358 -10.60233707 0 0 Z " fill="#010101" transform="translate(476,11)"/>
<path d="M0 0 C143.55 0 287.1 0 435 0 C435.0825 40.5075 435.165 81.015 435.25 122.75 C435.28641602 135.55651367 435.32283203 148.36302734 435.36035156 161.55761719 C435.37841797 177.15478516 435.37841797 177.15478516 435.3817749 184.44854736 C435.38551264 189.5600973 435.40021718 194.67152122 435.42230225 199.78302002 C435.45039674 206.29497452 435.45798057 212.80673505 435.4522891 219.3187623 C435.45347995 221.7137113 435.46146221 224.10866838 435.47686052 226.50356817 C435.49664399 229.72931149 435.49200247 232.95410728 435.48101807 236.17987061 C435.49266872 237.12512226 435.50431938 238.07037392 435.51632309 239.04426956 C435.5083596 239.90941933 435.50039612 240.77456909 435.49219131 241.66593552 C435.4937102 242.41170624 435.49522908 243.15747697 435.49679399 243.92584682 C434.75726786 247.0134254 433.5534898 248.13929704 431 250 C427.76987219 250.50139666 427.76987219 250.50139666 423.85036469 250.50336456 C423.12601213 250.50917833 422.40165958 250.51499209 421.65535694 250.52098203 C419.21501278 250.53564282 416.77566488 250.52166923 414.33532715 250.50793457 C412.57343069 250.5125411 410.81153807 250.51889234 409.04965353 250.52684355 C404.19783739 250.54359411 399.34633459 250.53526458 394.49451709 250.52289867 C389.26608288 250.51387387 384.03770377 250.52780511 378.8092804 250.53881836 C368.56275903 250.55663569 358.31635464 250.5527493 348.06982863 250.5411678 C339.74471869 250.53214637 331.41964162 250.53090387 323.0945282 250.53526306 C321.3194546 250.53618246 321.3194546 250.53618246 319.50852093 250.53712043 C317.10475098 250.53839929 314.70098104 250.53969614 312.29721111 250.5410108 C289.73953105 250.55242601 267.18191594 250.53928813 244.62424654 250.51780933 C225.25483625 250.49993751 205.88552184 250.50304136 186.51611328 250.52148438 C164.04097428 250.54287446 141.56589225 250.55132729 119.0907445 250.53903532 C116.69565361 250.53776108 114.30056271 250.5365036 111.9054718 250.53526306 C110.13767337 250.53433741 110.13767337 250.53433741 108.33416185 250.53339306 C100.01586677 250.52993457 91.69760773 250.53577923 83.37931824 250.54518127 C73.24665003 250.55638197 63.11410581 250.55340191 52.98145187 250.5320583 C47.8083284 250.52152187 42.63541191 250.51747009 37.46228981 250.53065491 C32.73118012 250.54253108 28.00047024 250.53609555 23.26939708 250.5147447 C21.55344471 250.51025829 19.83745891 250.51259028 18.12152785 250.52224785 C15.79707674 250.5343317 13.47401276 250.52202037 11.14963531 250.50336456 C9.85619784 250.50271515 8.56276036 250.50206574 7.23012781 250.50139666 C4 250 4 250 1.58390975 248.23941875 C-0.16986131 245.75984074 -0.49829314 244.6619335 -0.49219131 241.66593552 C-0.5001548 240.80078575 -0.50811829 239.93563599 -0.51632309 239.04426956 C-0.50467243 238.09901791 -0.49302177 237.15376625 -0.48101807 236.17987061 C-0.48444214 235.17433136 -0.48786621 234.16879211 -0.49139404 233.13278198 C-0.49803034 229.74285797 -0.47589705 226.35371931 -0.45410156 222.96386719 C-0.45287663 220.50035248 -0.4534095 218.03683637 -0.45556259 215.5733223 C-0.4563754 209.63509835 -0.43921401 203.69717983 -0.41355728 197.75903232 C-0.38477019 190.89092911 -0.38157902 184.02294727 -0.37841797 177.15478516 C-0.357412 159.01981842 -0.30156759 140.88490559 -0.25 122.75 C-0.12625 61.98875 -0.12625 61.98875 0 0 Z " fill="#F05D74" transform="translate(47,229)"/>
<path d="M0 0 C1.98400056 1.26554018 3.92552674 2.57956933 5.86279297 3.91552734 C6.61359131 4.42446533 7.36438965 4.93340332 8.13793945 5.45776367 C9.83152496 6.60694038 11.52288782 7.75939727 13.21240234 8.91455078 C16.32461475 11.04040819 19.444531 13.15474366 22.56591797 15.26708984 C27.93911601 18.90474235 33.30717356 22.54988888 38.67288208 26.19857788 C42.71517163 28.94689314 46.76074328 31.69031427 50.80810547 34.43115234 C55.97088162 37.92877922 61.12557408 41.43798247 66.2734375 44.95751953 C68.0688595 46.18309157 69.86656295 47.40533094 71.66699219 48.62353516 C92.75589188 62.90486308 92.75589188 62.90486308 95.05029297 71.85302734 C97.16433687 82.84605565 95.8892318 90.50355447 90.72607422 100.38818359 C82.82726791 112.00624136 66.14575174 119.53683854 54.54040527 127.20877075 C48.55558948 131.17038887 42.61140376 135.19075693 36.67596436 139.2258606 C34.93015549 140.41222302 33.18298609 141.59655821 31.43554688 142.78051758 C26.19923186 146.33150736 20.97401062 149.89641925 15.7835083 153.5141449 C14.07080331 154.70711394 12.35519605 155.89578644 10.63867188 157.08325195 C8.52137089 158.55027739 6.40991668 160.02579362 4.30566406 161.51147461 C-4.42193387 167.54033953 -12.20386792 171.073375 -22.94970703 169.85302734 C-31.70758668 168.1072706 -38.28397755 163.62582618 -43.32470703 156.29052734 C-46.44258721 151.40468718 -48.1949721 147.22978557 -48.22386169 141.38374329 C-48.23383682 140.29748154 -48.24381195 139.21121979 -48.25408936 138.09204102 C-48.25475403 136.91013184 -48.2554187 135.72822266 -48.25610352 134.51049805 C-48.26442703 133.25786667 -48.27275055 132.00523529 -48.28132629 130.71464539 C-48.3012804 127.2845589 -48.31206499 123.85471505 -48.31715274 120.4245913 C-48.32080243 118.2778387 -48.32704578 116.13110922 -48.33415413 113.98436546 C-48.35863815 106.48395137 -48.37169741 98.9836063 -48.37524414 91.4831543 C-48.37887451 84.51039983 -48.40873627 77.53808686 -48.45064873 70.56546718 C-48.48544134 64.56524454 -48.50079415 58.56516752 -48.50149018 52.56484479 C-48.50228021 48.98736886 -48.51089076 45.41034256 -48.53948784 41.83297157 C-48.57072615 37.8358455 -48.56156635 33.83975808 -48.54907227 29.8425293 C-48.56390656 28.67074127 -48.57874084 27.49895325 -48.59402466 26.29165649 C-48.51604457 17.50331256 -46.25901941 11.30580132 -41.02783203 4.26708984 C-29.07641196 -7.42895801 -14.37380411 -8.45581414 0 0 Z " fill="#030202" transform="translate(260.94970703125,272.14697265625)"/>
<path d="M0 0 C143.55 0 287.1 0 435 0 C435 81.18 435 162.36 435 246 C434.67 246 434.34 246 434 246 C434 173.73 434 101.46 434 27 C290.78 27 147.56 27 0 27 C0 18.09 0 9.18 0 0 Z " fill="#D75468" transform="translate(47,229)"/>
<path d="M0 0 C-1.6105237 6.18022103 -3.37545255 12.30167089 -5.2956543 18.39257812 C-5.51338092 19.08621712 -5.73110754 19.77985611 -5.95543194 20.49451447 C-6.41087183 21.94533258 -6.86671961 23.39602272 -7.32296371 24.84658813 C-8.17543062 27.55798247 -9.02481582 30.27033634 -9.87408161 32.98273468 C-10.94258074 36.39499597 -12.01243066 39.80683385 -13.08203125 43.21875 C-13.54571627 44.69803685 -14.00939514 46.17732563 -14.47306824 47.65661621 C-15.67469302 51.4901924 -16.8763995 55.32374298 -18.078125 59.1572876 C-19.31189985 63.0931237 -20.54559465 67.02898489 -21.77929688 70.96484375 C-24.18612108 78.64325325 -26.59303189 86.32163561 -29 94 C-30.44352592 94.24208443 -30.44352592 94.24208443 -31.91621399 94.48905945 C-53.49303994 98.11087751 -74.99697763 102.02871889 -96.48046875 106.16796875 C-98.87640947 106.62923106 -101.27237365 107.09037036 -103.668396 107.5512085 C-105.23332664 107.85242928 -106.7981447 108.15423554 -108.362854 108.456604 C-110.59164707 108.88657609 -112.82110735 109.31290385 -115.05078125 109.73828125 C-116.32219971 109.98231689 -117.59361816 110.22635254 -118.90356445 110.4777832 C-122 111 -122 111 -125 111 C-123.53715085 104.72045244 -121.8990107 98.52409554 -119.95703125 92.375 C-119.6426561 91.37678223 -119.6426561 91.37678223 -119.32192993 90.35839844 C-118.83355497 88.80804763 -118.34442251 87.25793532 -117.85470581 85.70800781 C-116.88541452 82.63695299 -115.92019702 79.56463276 -114.95532227 76.4921875 C-113.20796012 70.92933815 -111.45749945 65.36747329 -109.70455265 59.80638123 C-108.6825092 56.56384946 -107.66131461 53.32105571 -106.64208984 50.07763672 C-105.44872664 46.28015513 -104.25181514 42.48379665 -103.0546875 38.6875 C-102.6921286 37.53217773 -102.3295697 36.37685547 -101.95602417 35.18652344 C-96.76976203 18.76976203 -96.76976203 18.76976203 -95 17 C-93.63203102 16.6805154 -92.25152124 16.41440301 -90.86791992 16.17138672 C-89.98192108 16.01362762 -89.09592224 15.85586853 -88.18307495 15.69332886 C-87.2087149 15.52382721 -86.23435486 15.35432556 -85.23046875 15.1796875 C-84.21856476 15.00011505 -83.20666077 14.8205426 -82.16409302 14.63552856 C-79.97870199 14.24779957 -77.79302032 13.86170603 -75.60708618 13.47705078 C-69.89005202 12.47051236 -64.1752891 11.45133288 -58.4609375 10.4296875 C-57.31649673 10.22510925 -56.17205597 10.02053101 -54.99293518 9.80975342 C-43.26461545 7.70390326 -31.56896891 5.44169098 -19.8815918 3.12060547 C-18.8426326 2.91502518 -18.8426326 2.91502518 -17.78268433 2.70529175 C-15.95667327 2.34339611 -14.13126163 1.97847945 -12.3059082 1.61328125 C-3.60947452 0 -3.60947452 0 0 0 Z " fill="#FDC918" transform="translate(378,47)"/>
<path d="M0 0 C-2.98114769 10.70184313 -6.24783795 21.29791657 -9.60546875 31.88671875 C-10.13560396 33.56341014 -10.66557419 35.24015369 -11.19538879 36.91694641 C-12.57582517 41.28422687 -13.95859826 45.65076396 -15.34185791 50.01715088 C-16.47485469 53.59490202 -17.60621086 57.17317094 -18.73748302 60.7514677 C-21.07225788 68.1365174 -23.40807968 75.52123633 -25.74682617 82.9050293 C-25.96136444 83.58290497 -26.17590271 84.26078064 -26.39694214 84.959198 C-27.24815459 87.64541349 -28.10889579 90.32668738 -29 93 C-30.26046143 93.20979492 -30.26046143 93.20979492 -31.54638672 93.42382812 C-53.41228174 97.07940848 -75.20009736 101.07070208 -96.96875 105.265625 C-107.86191555 107.36238439 -107.86191555 107.36238439 -112.48828125 108.2265625 C-113.29048096 108.37689941 -114.09268066 108.52723633 -114.91918945 108.68212891 C-117.62910048 109.09610335 -120.26561383 109.14780466 -123 109 C-121.90589546 103.43001326 -120.43779743 98.06716232 -118.70922852 92.66333008 C-116.75791006 86.49245074 -114.90419278 80.30092698 -113.12163639 74.07940388 C-111.45122851 68.25290618 -109.73355535 62.44127333 -107.99690914 56.63418865 C-106.8387842 52.75422391 -105.70067505 48.87037611 -104.6027832 44.97290039 C-103.52602514 41.15375154 -102.40036549 37.35225132 -101.23965645 33.55780983 C-100.81008642 32.12257216 -100.39817898 30.68191669 -100.00504875 29.23627281 C-98.80519437 24.84857037 -97.52517563 20.83818691 -95 17 C-91.10314933 14.80915908 -87.40582398 14.40601164 -83 14 C-81.15567161 13.65365756 -79.31420685 13.29163088 -77.47631836 12.91259766 C-75.59823369 12.57560106 -73.71937535 12.24289326 -71.83984375 11.9140625 C-70.30835442 11.64067802 -70.30835442 11.64067802 -68.7459259 11.36177063 C-65.47712207 10.77899409 -62.20735356 10.2018547 -58.9375 9.625 C-54.45155128 8.8283473 -49.96601828 8.02936558 -45.48046875 7.23046875 C-44.39045563 7.036772 -43.3004425 6.84307526 -42.17739868 6.64350891 C-36.08765599 5.55923596 -30.00294913 4.45345837 -23.92578125 3.30078125 C-22.05515015 2.94669189 -22.05515015 2.94669189 -20.14672852 2.58544922 C-17.96016577 2.16834741 -15.77438301 1.74712468 -13.58959961 1.32080078 C-12.64737549 1.14145996 -11.70515137 0.96211914 -10.734375 0.77734375 C-9.56213379 0.54905884 -9.56213379 0.54905884 -8.36621094 0.31616211 C-5.5603468 -0.05874442 -2.82807224 -0.01959358 0 0 Z " fill="#FDC918" transform="translate(247,72)"/>
<path d="M0 0 C-1.26540759 6.2215873 -2.91637442 12.22055726 -4.82543945 18.27490234 C-5.97663267 21.92589094 -7.11819563 25.57975809 -8.2578125 29.234375 C-10.15116578 35.29925439 -12.05737458 41.35997981 -13.97265625 47.41796875 C-14.22535782 48.2172731 -14.47805939 49.01657745 -14.73841858 49.84010315 C-15.77387341 53.11447223 -16.80968791 56.38872724 -17.84594727 59.6628418 C-20.67624585 68.6067269 -23.49553852 77.55278035 -26.23608398 86.5246582 C-26.80152576 88.3568775 -27.39363774 90.18091321 -28 92 C-30.75835325 92.81419406 -33.36996157 93.41723578 -36.1875 93.9375 C-37.021604 94.1015332 -37.85570801 94.26556641 -38.71508789 94.43457031 C-41.47405013 94.97153757 -44.23654897 95.4866669 -47 96 C-49.00521739 96.38146281 -51.01042562 96.76297378 -53.015625 97.14453125 C-54.98930191 97.5145252 -56.96325548 97.88304678 -58.9375 98.25 C-59.87811279 98.42523193 -60.81872559 98.60046387 -61.7878418 98.78100586 C-63.11295776 99.02089233 -63.11295776 99.02089233 -64.46484375 99.265625 C-65.244646 99.40774414 -66.02444824 99.54986328 -66.82788086 99.69628906 C-69 100 -69 100 -73 100 C-76.74750102 82.30993307 -79.76498981 64.48676749 -82.83665466 46.66989136 C-83.58736806 42.32595807 -84.37312633 37.99126327 -85.1953125 33.66015625 C-85.8503342 30.0818484 -86.2717246 26.64973334 -86.25 23 C-86.25515625 22.113125 -86.2603125 21.22625 -86.265625 20.3125 C-86 18 -86 18 -84 15 C-81.33366635 14.19384657 -78.79974145 13.57053048 -76.078125 13.03125 C-75.2769928 12.86338989 -74.4758606 12.69552979 -73.65045166 12.52258301 C-64.71571575 10.67758056 -55.73552829 9.07478673 -46.75 7.5 C-44.17852872 7.04546248 -41.60725303 6.58982927 -39.03598022 6.13417053 C-37.35412116 5.83626629 -35.67217667 5.53884389 -33.99014282 5.2419281 C-29.24190201 4.40274002 -24.49795158 3.54424604 -19.7578125 2.66015625 C-18.23075684 2.37591797 -18.23075684 2.37591797 -16.67285156 2.0859375 C-14.87468007 1.74952566 -13.07709669 1.40994641 -11.28027344 1.06640625 C-7.47697739 0.35852232 -3.87422917 -0.19448942 0 0 Z " fill="#FEC918" transform="translate(117,96)"/>
<path d="M0 0 C3.59848889 2.803211 4.59377125 5.06996008 5.32446289 9.50854492 C5.51468521 10.61457565 5.70490753 11.72060638 5.90089417 12.8601532 C6.08957565 14.05485733 6.27825714 15.24956146 6.47265625 16.48046875 C6.68184189 17.72186111 6.89102753 18.96325348 7.10655212 20.24226379 C7.6610688 23.5499469 8.20164272 26.85929693 8.7354126 30.17034912 C9.27155607 33.47675063 9.82505176 36.78017585 10.37695312 40.08398438 C11.21957365 45.13585562 12.05284458 50.18912879 12.87939453 55.24365234 C14.01044225 62.12506232 15.23556539 68.98627376 16.51733398 75.84106445 C16.94331519 78.62901126 17.10137571 81.18773797 17 84 C2.26589665 87.21533538 -12.52669169 89.92438332 -27.38427734 92.5 C-30.24624701 92.99731155 -33.10768565 93.49750683 -35.96875 94 C-36.89220215 94.16209961 -37.8156543 94.32419922 -38.76708984 94.49121094 C-45.89306231 95.76078797 -52.97345227 97.20548482 -60.03796387 98.78125 C-63.47360853 99.53555963 -66.46192143 100 -70 100 C-68.67902089 93.55051375 -66.91038776 87.46274071 -64.75 81.25 C-62.43788167 74.45971103 -60.28031151 67.66507162 -58.375 60.75 C-55.26265386 49.51681757 -51.7128436 38.42115726 -48.1875 27.3125 C-47.74250153 25.90732117 -47.74250153 25.90732117 -47.28851318 24.47375488 C-46.43805927 21.79038255 -45.58489035 19.10789256 -44.73046875 16.42578125 C-44.47030472 15.60590225 -44.21014069 14.78602325 -43.9420929 13.94129944 C-42.11634017 8.23268034 -42.11634017 8.23268034 -41 6 C-38.64293965 5.39208336 -36.3571954 4.91048281 -33.96484375 4.4921875 C-33.2527626 4.36184113 -32.54068146 4.23149475 -31.80702209 4.09719849 C-30.29374733 3.82241456 -28.77966924 3.55202468 -27.26489258 3.28564453 C-24.96921154 2.88059518 -22.67703495 2.45903689 -20.38476562 2.03515625 C-18.91163919 1.76982725 -17.43833651 1.50547453 -15.96484375 1.2421875 C-15.28743637 1.11721893 -14.61002899 0.99225037 -13.91209412 0.86349487 C-9.15400047 0.04010142 -4.80054146 -0.4191767 0 0 Z " fill="#FDC818" transform="translate(454,34)"/>
<path d="M0 0 C4.38882053 1.75552821 7.7660843 3.74712667 11.5625 6.4375 C12.99533828 7.43728149 14.42899831 8.43588586 15.86328125 9.43359375 C16.66975098 9.99546387 17.4762207 10.55733398 18.30712891 11.13623047 C23.59505088 14.79606695 28.92569019 18.39341862 34.25 22 C35.44560038 22.81048235 36.64115667 23.62102976 37.83666992 24.43164062 C39.67193152 25.67601777 41.50722434 26.92034861 43.34266663 28.16445923 C47.83653657 31.21055942 52.32879187 34.25903072 56.8203125 37.30859375 C58.09863131 38.1764345 59.37695161 39.04427307 60.65527344 39.91210938 C62.49718383 41.16257186 64.33905607 42.4130903 66.18078613 43.66381836 C67.87817923 44.81647547 69.57578617 45.96881701 71.2734375 47.12109375 C72.23685059 47.7752124 73.20026367 48.42933105 74.19287109 49.10327148 C77.12044049 51.08137956 80.05823698 53.04308335 83 55 C81.55345452 58.58360899 79.86442642 60.07068039 76.64453125 62.15234375 C75.26986694 63.05327759 75.26986694 63.05327759 73.86743164 63.97241211 C72.8593042 64.62089111 71.85117676 65.26937012 70.8125 65.9375 C69.1894327 67.00011213 67.56640177 68.06278167 65.94468689 69.12745667 C64.78947901 69.88566393 63.63358747 70.64283044 62.47706604 71.39903259 C56.11400416 75.56394091 49.81985155 79.82914994 43.52896118 84.10198975 C41.56395925 85.43650896 39.59790734 86.769468 37.6315918 88.10205078 C31.24819727 92.42948132 24.87201785 96.7672998 18.50390625 101.1171875 C17.32936938 101.91873587 16.15480941 102.72025039 14.98022461 103.52172852 C12.78516855 105.01954774 10.59236625 106.52049565 8.40063477 108.02319336 C7.43569092 108.68198486 6.47074707 109.34077637 5.4765625 110.01953125 C4.63174316 110.59807861 3.78692383 111.17662598 2.91650391 111.77270508 C1 113 1 113 0 113 C0 75.71 0 38.42 0 0 Z " fill="#FDFDFD" transform="translate(243,298)"/>
<path d="M0 0 C-1.70565921 6.54529389 -3.57565341 13.03522543 -5.5625 19.5 C-5.77221436 20.19416016 -5.98192871 20.88832031 -6.19799805 21.60351562 C-7.18357911 24.77542911 -8.14283565 27.21425348 -10 30 C-12.3359375 30.37109375 -12.3359375 30.37109375 -15.375 30.4375 C-21.15459366 30.75367033 -26.59108499 31.6117662 -32.25 32.8125 C-39.97157133 34.43954008 -47.70123243 35.79647545 -55.5 37 C-63.23197024 38.19575064 -70.90356929 39.52627666 -78.5625 41.125 C-87.0056276 42.88695546 -95.42274204 44.0895648 -104 45 C-102.93594541 38.5456689 -101.27809779 32.6044128 -98.94921875 26.4921875 C-98.18044481 24.47376045 -97.48488673 22.42754895 -96.8125 20.375 C-96 18 -96 18 -95 17 C-93.63203102 16.6805154 -92.25152124 16.41440301 -90.86791992 16.17138672 C-89.98192108 16.01362762 -89.09592224 15.85586853 -88.18307495 15.69332886 C-87.2087149 15.52382721 -86.23435486 15.35432556 -85.23046875 15.1796875 C-83.71261276 14.91032883 -83.71261276 14.91032883 -82.16409302 14.63552856 C-79.97870199 14.24779957 -77.79302032 13.86170603 -75.60708618 13.47705078 C-69.89005202 12.47051236 -64.1752891 11.45133288 -58.4609375 10.4296875 C-57.31649673 10.22510925 -56.17205597 10.02053101 -54.99293518 9.80975342 C-43.26461545 7.70390326 -31.56896891 5.44169098 -19.8815918 3.12060547 C-18.8426326 2.91502518 -18.8426326 2.91502518 -17.78268433 2.70529175 C-15.95667327 2.34339611 -14.13126163 1.97847945 -12.3059082 1.61328125 C-3.60947452 0 -3.60947452 0 0 0 Z " fill="#E3B416" transform="translate(378,47)"/>
<path d="M0 0 C-2.54787023 9.03951832 -5.20029896 18.03499987 -8 27 C-8.67877197 27.10546143 -9.35754395 27.21092285 -10.05688477 27.31958008 C-25.1683895 29.61821411 -25.1683895 29.61821411 -40.1875 32.4375 C-47.65003591 33.99784842 -55.16446279 35.20775612 -62.6875 36.4375 C-72.52240658 38.04531036 -82.31391059 39.75415877 -92.0612793 41.83178711 C-95.48375574 42.55228873 -98.48231835 43 -102 43 C-101.2986024 37.29632724 -100.17592398 31.80049172 -98.6875 26.25 C-98.50638672 25.40050781 -98.32527344 24.55101563 -98.13867188 23.67578125 C-97.40128825 21.03122694 -96.66300175 19.18900451 -95 17 C-91.8603401 15.33964226 -88.63588063 14.8537301 -85.14401245 14.33227539 C-82.67515228 13.94965566 -80.22629023 13.49098894 -77.77172852 13.02539062 C-71.50199243 11.8437935 -65.22051597 10.73342495 -58.9375 9.625 C-54.45155128 8.8283473 -49.96601828 8.02936558 -45.48046875 7.23046875 C-44.39045563 7.036772 -43.3004425 6.84307526 -42.17739868 6.64350891 C-36.08765599 5.55923596 -30.00294913 4.45345837 -23.92578125 3.30078125 C-22.05515015 2.94669189 -22.05515015 2.94669189 -20.14672852 2.58544922 C-17.96016577 2.16834741 -15.77438301 1.74712468 -13.58959961 1.32080078 C-8.98965256 0.4452572 -4.70982327 -0.24497403 0 0 Z " fill="#E3B416" transform="translate(247,72)"/>
<path d="M0 0 C-1.52148092 7.48061452 -3.52418052 14.77563614 -6 22 C-6.22574707 22.69246826 -6.45149414 23.38493652 -6.68408203 24.09838867 C-8 26 -8 26 -10.66357422 26.84960938 C-11.7826416 27.01267578 -12.90170898 27.17574219 -14.0546875 27.34375 C-15.29919678 27.53590088 -16.54370605 27.72805176 -17.82592773 27.92602539 C-18.48648163 28.01965363 -19.14703552 28.11328186 -19.8276062 28.20974731 C-22.58405267 28.6005202 -25.33415131 29.02923313 -28.08512878 29.45655823 C-29.46342073 29.67043831 -30.84201441 29.88238288 -32.22090149 30.09239197 C-37.66299097 30.92578961 -43.05029722 31.9325178 -48.4375 33.0625 C-56.78659343 34.79775349 -65.16816597 36.28211141 -73.57788086 37.69360352 C-74.50221924 37.85014404 -75.42655762 38.00668457 -76.37890625 38.16796875 C-77.1994751 38.30485107 -78.02004395 38.4417334 -78.86547852 38.58276367 C-81.17337231 38.98648033 -81.17337231 38.98648033 -84 40 C-85.57196816 32.74368269 -86.85452977 25.43943565 -86 18 C-83.66861761 14.50292641 -82.36432019 14.34889999 -78.40374756 13.49206543 C-77.63629211 13.33999634 -76.86883667 13.18792725 -76.078125 13.03125 C-75.2769928 12.86338989 -74.4758606 12.69552979 -73.65045166 12.52258301 C-64.71571575 10.67758056 -55.73552829 9.07478673 -46.75 7.5 C-44.17852872 7.04546248 -41.60725303 6.58982927 -39.03598022 6.13417053 C-37.35412116 5.83626629 -35.67217667 5.53884389 -33.99014282 5.2419281 C-29.24190201 4.40274002 -24.49795158 3.54424604 -19.7578125 2.66015625 C-18.23075684 2.37591797 -18.23075684 2.37591797 -16.67285156 2.0859375 C-14.87468007 1.74952566 -13.07709669 1.40994641 -11.28027344 1.06640625 C-7.47697739 0.35852232 -3.87422917 -0.19448942 0 0 Z " fill="#E3B416" transform="translate(117,96)"/>
<path d="M0 0 C2.53250206 4.20444516 2.81389465 8.60239571 3.359375 13.421875 C3.48441406 14.40542969 3.60945313 15.38898437 3.73828125 16.40234375 C4.04393443 18.82405737 4.33368873 21.24659808 4.609375 23.671875 C-14.2501244 27.8861213 -33.28910397 30.78825246 -52.390625 33.671875 C-50.55163239 26.69129337 -48.53054881 19.81723157 -46.203125 12.984375 C-45.79416992 11.77104492 -45.79416992 11.77104492 -45.37695312 10.53320312 C-44.71766548 8.5784731 -44.0545683 6.62502859 -43.390625 4.671875 C-38.83909361 3.80812544 -34.28589493 2.95400046 -29.73095703 2.10839844 C-28.18457489 1.81996413 -26.63866329 1.52899428 -25.09326172 1.23535156 C-22.8602672 0.81152949 -20.6256886 0.3971289 -18.390625 -0.015625 C-17.36980835 -0.21248901 -17.36980835 -0.21248901 -16.32836914 -0.41333008 C-4.58936646 -2.54964803 -4.58936646 -2.54964803 0 0 Z " fill="#E2B316" transform="translate(456.390625,35.328125)"/>
</svg>
